<svg xmlns="http://www.w3.org/2000/svg" version="1.1" xmlns:xlink="http://www.w3.org/1999/xlink" xmlns:svgjs="http://svgjs.com/svgjs" width="1440" height="560" preserveAspectRatio="none" viewBox="0 0 1440 560"><g mask="url(&quot;#SvgjsMask1007&quot;)" fill="none"><rect width="1440" height="560" x="0" y="0" fill="rgba(212, 168, 23, 1)"></rect><path d="M1194.72-106.96C1055.08-72.44 1011.63 298.57 793.72 305.64 575.8 312.71 593.21 235.64 392.71 235.64 192.21 235.64 93.48 305.38-8.29 305.64" stroke="rgba(4, 66, 131, 1)" stroke-width="2"></path><path d="M1022.51-37.67C846-26.69 715.14 302.66 402.54 303 89.94 303.34-56.1 125.59-217.43 123.8" stroke="rgba(4, 66, 131, 1)" stroke-width="2"></path><path d="M745.23-62.5C633.91-4.21 685.58 363.43 480.96 365.05 276.34 366.67 95.86 145.61-47.58 141.05" stroke="rgba(4, 66, 131, 1)" stroke-width="2"></path><path d="M792.39-25.05C634.23-8.59 556.09 321.32 266.65 332.94-22.79 344.56-123.77 460.81-259.09 461.74" stroke="rgba(4, 66, 131, 1)" stroke-width="2"></path><path d="M1063.97-63.64C861.7-41.5 737.53 399.79 395.99 401.38 54.45 402.97-99.1 223.73-271.99 222.18" stroke="rgba(4, 66, 131, 1)" stroke-width="2"></path></g><defs><mask id="SvgjsMask1007"><rect width="1440" height="560" fill="#ffffff"></rect></mask></defs></svg>